<svg width="179" height="34" viewBox="0 0 179 34" fill="none" xmlns="http://www.w3.org/2000/svg">
<path d="M21.1886 22L23 25H3L2 22H21.1886Z" fill="#D92700"/>
<path d="M17.8459 17L19 20H9.9144H0.97337L0 17H17.8459Z" fill="#941F05"/>
<path d="M19 12L16.9146 15H0L0.993023 12H19Z" fill="#4F1002"/>
<path d="M179 27L177.647 30H4.90206L4 27H179Z" fill="#8D7F7D"/>
<path d="M31.3875 25.25C29.7042 25.25 28.25 24.8583 27.025 24.075C25.8 23.2917 24.8542 22.1917 24.1875 20.775C23.5292 19.3583 23.2 17.7042 23.2 15.8125C23.2 13.9125 23.5292 12.2833 24.1875 10.925C24.8458 9.55833 25.7875 8.50833 27.0125 7.775C28.2375 7.04167 29.6958 6.675 31.3875 6.675C32.7458 6.675 33.9542 6.95 35.0125 7.5C36.0792 8.04167 36.9375 8.78333 37.5875 9.725C38.2458 10.6667 38.6333 11.7292 38.75 12.9125H34.925C34.8083 12.2875 34.5958 11.7333 34.2875 11.25C33.9792 10.7583 33.575 10.375 33.075 10.1C32.575 9.81667 31.975 9.675 31.275 9.675C30.4333 9.675 29.7083 9.87917 29.1 10.2875C28.4917 10.6958 28.025 11.3542 27.7 12.2625C27.375 13.1708 27.2125 14.3708 27.2125 15.8625C27.2125 18.1125 27.5708 19.7417 28.2875 20.75C29.0125 21.75 30.0083 22.25 31.275 22.25C31.975 22.25 32.575 22.0917 33.075 21.775C33.575 21.45 33.9792 21.025 34.2875 20.5C34.5958 19.9667 34.8083 19.3833 34.925 18.75H38.75C38.6417 19.6083 38.4333 20.4292 38.125 21.2125C37.8167 21.9875 37.3792 22.6792 36.8125 23.2875C36.2458 23.8958 35.5167 24.375 34.625 24.725C33.7333 25.075 32.6542 25.25 31.3875 25.25ZM45.0025 25.25C44.1859 25.25 43.4442 25.0958 42.7775 24.7875C42.1192 24.4792 41.5984 24.0333 41.215 23.45C40.8317 22.8583 40.64 22.1417 40.64 21.3C40.64 19.8833 41.1692 18.8083 42.2275 18.075C43.2859 17.3333 44.9567 16.95 47.24 16.925L48.865 16.9V16.125C48.865 15.5333 48.69 15.0792 48.34 14.7625C47.9984 14.4375 47.4609 14.2792 46.7275 14.2875C46.2025 14.2958 45.6984 14.4208 45.215 14.6625C44.74 14.9042 44.4109 15.325 44.2275 15.925H41.19C41.24 14.9917 41.5109 14.225 42.0025 13.625C42.5025 13.0167 43.1734 12.5667 44.015 12.275C44.8567 11.975 45.8192 11.825 46.9025 11.825C48.2192 11.825 49.2775 11.9917 50.0775 12.325C50.8775 12.65 51.4567 13.1208 51.815 13.7375C52.1817 14.3458 52.365 15.0708 52.365 15.9125V25H49.315L49.015 22.775C48.5734 23.7083 48.0192 24.3542 47.3525 24.7125C46.6942 25.0708 45.9109 25.25 45.0025 25.25ZM46.24 22.85C46.565 22.85 46.8817 22.7917 47.19 22.675C47.5067 22.55 47.79 22.3875 48.04 22.1875C48.29 21.9792 48.4859 21.7458 48.6275 21.4875C48.7775 21.2292 48.8567 20.9625 48.865 20.6875V18.775L47.5525 18.8C46.9442 18.8083 46.3775 18.8833 45.8525 19.025C45.3275 19.1583 44.9025 19.3792 44.5775 19.6875C44.2609 19.9958 44.1025 20.4125 44.1025 20.9375C44.1025 21.5375 44.3067 22.0083 44.715 22.35C45.1317 22.6833 45.64 22.85 46.24 22.85ZM55.3252 25V12.075H58.8377V15.1375C59.046 14.4792 59.3377 13.9042 59.7127 13.4125C60.096 12.9125 60.5585 12.525 61.1002 12.25C61.6419 11.9667 62.2544 11.825 62.9377 11.825C63.0544 11.825 63.1627 11.8333 63.2627 11.85C63.371 11.8583 63.4502 11.875 63.5002 11.9V15.375C63.4252 15.3417 63.3335 15.3208 63.2252 15.3125C63.1252 15.3042 63.0335 15.2958 62.9502 15.2875C62.2335 15.2292 61.621 15.25 61.1127 15.35C60.6044 15.45 60.1919 15.6208 59.8752 15.8625C59.5585 16.1042 59.3294 16.4 59.1877 16.75C59.046 17.1 58.9752 17.4917 58.9752 17.925V25H55.3252ZM68.3551 25V6.925H80.6551L80.6426 9.975H72.0301V14.5125H79.4926V17.5H72.0301V25H68.3551ZM83.2621 25V12.075H86.7496V25H83.2621ZM83.2246 10.225V6.9375H86.7746V10.225H83.2246ZM88.7646 25L93.7271 18.2625L89.1896 12.075H93.0146L95.7021 15.7L98.3771 12.075H102.19L97.6146 18.2625L102.59 25H98.7646L95.6771 20.7875L92.5896 25H88.7646Z" fill="#151411"/>
<path d="M110.496 25.16C109.931 25.16 109.387 25.0907 108.864 24.952C108.347 24.8133 107.875 24.608 107.448 24.336C107.027 24.0587 106.677 23.7147 106.4 23.304C106.128 22.8933 105.957 22.4133 105.888 21.864H107.672C107.763 22.28 107.941 22.6293 108.208 22.912C108.48 23.1947 108.819 23.408 109.224 23.552C109.635 23.696 110.088 23.768 110.584 23.768C111.043 23.768 111.467 23.696 111.856 23.552C112.245 23.408 112.56 23.2 112.8 22.928C113.04 22.656 113.16 22.3227 113.16 21.928C113.16 21.4853 113.011 21.136 112.712 20.88C112.419 20.6187 111.976 20.4107 111.384 20.256L109.064 19.68C108.504 19.5467 108.011 19.3573 107.584 19.112C107.157 18.8613 106.827 18.5333 106.592 18.128C106.357 17.7173 106.24 17.2107 106.24 16.608C106.24 15.936 106.424 15.352 106.792 14.856C107.165 14.3547 107.669 13.968 108.304 13.696C108.944 13.424 109.667 13.288 110.472 13.288C111.395 13.288 112.171 13.4453 112.8 13.76C113.435 14.0747 113.915 14.4907 114.24 15.008C114.571 15.52 114.739 16.0773 114.744 16.68H113C112.952 16.1893 112.805 15.8 112.56 15.512C112.32 15.2187 112.013 15.008 111.64 14.88C111.272 14.752 110.864 14.688 110.416 14.688C109.627 14.688 109.032 14.864 108.632 15.216C108.237 15.5627 108.04 15.976 108.04 16.456C108.04 16.8987 108.184 17.248 108.472 17.504C108.765 17.76 109.197 17.9573 109.768 18.096L112.008 18.648C112.712 18.8027 113.275 19.0347 113.696 19.344C114.123 19.648 114.429 20.008 114.616 20.424C114.803 20.8347 114.896 21.2853 114.896 21.776C114.896 22.432 114.712 23.016 114.344 23.528C113.976 24.0347 113.461 24.4347 112.8 24.728C112.144 25.016 111.376 25.16 110.496 25.16ZM120.333 25.16C119.56 25.16 118.885 24.9947 118.309 24.664C117.733 24.328 117.285 23.8427 116.965 23.208C116.645 22.5733 116.485 21.8053 116.485 20.904C116.485 20.0347 116.637 19.2747 116.941 18.624C117.245 17.9733 117.683 17.4693 118.253 17.112C118.829 16.7493 119.525 16.568 120.341 16.568C121.12 16.568 121.795 16.7387 122.365 17.08C122.936 17.416 123.379 17.9093 123.693 18.56C124.008 19.2053 124.165 19.9867 124.165 20.904C124.165 21.7413 124.019 22.48 123.725 23.12C123.432 23.76 123 24.2613 122.429 24.624C121.864 24.9813 121.165 25.16 120.333 25.16ZM120.341 23.84C120.816 23.84 121.211 23.7173 121.525 23.472C121.84 23.2213 122.077 22.872 122.237 22.424C122.397 21.9707 122.477 21.448 122.477 20.856C122.477 20.3067 122.405 19.808 122.261 19.36C122.123 18.9067 121.896 18.5467 121.581 18.28C121.272 18.0133 120.859 17.88 120.341 17.88C119.867 17.88 119.467 18.0027 119.141 18.248C118.821 18.488 118.581 18.832 118.421 19.28C118.261 19.7227 118.181 20.248 118.181 20.856C118.181 21.3947 118.253 21.8907 118.397 22.344C118.541 22.7973 118.771 23.16 119.085 23.432C119.405 23.704 119.824 23.84 120.341 23.84ZM128.275 25.112C127.784 25.112 127.39 25.048 127.091 24.92C126.798 24.792 126.574 24.6213 126.419 24.408C126.264 24.1893 126.16 23.944 126.107 23.672C126.059 23.3947 126.035 23.1093 126.035 22.816V13.112H127.723V22.64C127.723 23.024 127.798 23.3173 127.947 23.52C128.102 23.7227 128.336 23.8373 128.651 23.864L129.083 23.88V24.968C128.95 25.0107 128.811 25.0453 128.667 25.072C128.528 25.0987 128.398 25.112 128.275 25.112ZM133.809 25.16C133.393 25.1547 132.996 25.0933 132.617 24.976C132.239 24.8587 131.9 24.6827 131.601 24.448C131.308 24.2133 131.073 23.9227 130.897 23.576C130.727 23.2293 130.641 22.8267 130.641 22.368V16.728H132.361V22.184C132.361 22.68 132.516 23.0827 132.825 23.392C133.135 23.7013 133.601 23.856 134.225 23.856C134.791 23.856 135.244 23.7093 135.585 23.416C135.927 23.1173 136.097 22.6827 136.097 22.112V16.728H137.801V25H136.473L136.281 23.4C136.185 23.832 136.012 24.1787 135.761 24.44C135.516 24.696 135.223 24.8827 134.881 25C134.545 25.112 134.188 25.1653 133.809 25.16ZM143.305 25.056C142.691 25.056 142.217 24.9733 141.881 24.808C141.545 24.6427 141.31 24.4053 141.177 24.096C141.043 23.7813 140.977 23.4027 140.977 22.96V17.96H139.633V16.728H141.033L141.449 14.296H142.697V16.72H144.553V17.96H142.697L142.705 22.896C142.705 23.168 142.731 23.368 142.785 23.496C142.843 23.6187 142.939 23.6987 143.073 23.736C143.211 23.768 143.398 23.784 143.633 23.784H144.593V24.896C144.491 24.9387 144.334 24.976 144.121 25.008C143.913 25.04 143.641 25.056 143.305 25.056ZM146.513 25V16.728H148.161V25H146.513ZM146.473 15.128V13.44H148.193V15.128H146.473ZM153.911 25.16C153.138 25.16 152.463 24.9947 151.887 24.664C151.311 24.328 150.863 23.8427 150.543 23.208C150.223 22.5733 150.063 21.8053 150.063 20.904C150.063 20.0347 150.215 19.2747 150.519 18.624C150.823 17.9733 151.261 17.4693 151.831 17.112C152.407 16.7493 153.103 16.568 153.919 16.568C154.698 16.568 155.373 16.7387 155.943 17.08C156.514 17.416 156.957 17.9093 157.271 18.56C157.586 19.2053 157.743 19.9867 157.743 20.904C157.743 21.7413 157.597 22.48 157.303 23.12C157.01 23.76 156.578 24.2613 156.007 24.624C155.442 24.9813 154.743 25.16 153.911 25.16ZM153.919 23.84C154.394 23.84 154.789 23.7173 155.103 23.472C155.418 23.2213 155.655 22.872 155.815 22.424C155.975 21.9707 156.055 21.448 156.055 20.856C156.055 20.3067 155.983 19.808 155.839 19.36C155.701 18.9067 155.474 18.5467 155.159 18.28C154.85 18.0133 154.437 17.88 153.919 17.88C153.445 17.88 153.045 18.0027 152.719 18.248C152.399 18.488 152.159 18.832 151.999 19.28C151.839 19.7227 151.759 20.248 151.759 20.856C151.759 21.3947 151.831 21.8907 151.975 22.344C152.119 22.7973 152.349 23.16 152.663 23.432C152.983 23.704 153.402 23.84 153.919 23.84ZM159.613 25V16.728H161.285V17.92C161.418 17.696 161.597 17.4853 161.821 17.288C162.05 17.0907 162.33 16.9307 162.661 16.808C162.997 16.6853 163.384 16.624 163.821 16.624C164.338 16.624 164.816 16.728 165.253 16.936C165.696 17.1387 166.05 17.4587 166.317 17.896C166.584 18.328 166.717 18.888 166.717 19.576V25H165.005V19.76C165.005 19.168 164.845 18.728 164.525 18.44C164.21 18.152 163.802 18.008 163.301 18.008C162.965 18.008 162.645 18.064 162.341 18.176C162.037 18.288 161.792 18.4587 161.605 18.688C161.418 18.912 161.325 19.1947 161.325 19.536V25H159.613ZM171.912 25.16C171.336 25.16 170.795 25.0693 170.288 24.888C169.787 24.7067 169.365 24.4213 169.024 24.032C168.688 23.6427 168.477 23.144 168.392 22.536H169.92C169.989 22.8507 170.12 23.112 170.312 23.32C170.509 23.5227 170.744 23.6747 171.016 23.776C171.293 23.872 171.589 23.92 171.904 23.92C172.427 23.92 172.851 23.8267 173.176 23.64C173.501 23.448 173.664 23.1547 173.664 22.76C173.664 22.4773 173.576 22.2507 173.4 22.08C173.224 21.9093 172.949 21.784 172.576 21.704L170.928 21.312C170.245 21.152 169.699 20.8987 169.288 20.552C168.877 20.2 168.669 19.7093 168.664 19.08C168.664 18.5947 168.784 18.1627 169.024 17.784C169.269 17.4053 169.632 17.1093 170.112 16.896C170.597 16.6773 171.195 16.568 171.904 16.568C172.837 16.568 173.587 16.776 174.152 17.192C174.723 17.608 175.016 18.2107 175.032 19H173.552C173.499 18.6213 173.325 18.3253 173.032 18.112C172.744 17.8933 172.363 17.784 171.888 17.784C171.397 17.784 170.995 17.8827 170.68 18.08C170.365 18.272 170.208 18.568 170.208 18.968C170.208 19.24 170.323 19.456 170.552 19.616C170.787 19.7707 171.131 19.8987 171.584 20L173.152 20.392C173.557 20.4987 173.891 20.64 174.152 20.816C174.413 20.9867 174.619 21.176 174.768 21.384C174.917 21.592 175.021 21.808 175.08 22.032C175.144 22.256 175.176 22.4667 175.176 22.664C175.176 23.1867 175.043 23.6347 174.776 24.008C174.515 24.376 174.141 24.6613 173.656 24.864C173.171 25.0613 172.589 25.16 171.912 25.16Z" fill="#151411"/>
</svg>
